<svg xmlns="http://www.w3.org/2000/svg" width="1200" height="280" viewBox="0 0 1200 280" role="img" aria-labelledby="title desc">
<title id="title">LessonBell — Education centre management</title>
<desc id="desc">LessonBell official apps and downloads. A simpler day at your education centre.</desc>
<defs>
<linearGradient id="bg" x1="0" y1="0" x2="1" y2="1"><stop offset="0" stop-color="#EFF5FF"/><stop offset="1" stop-color="#DFEAFF"/></linearGradient>
<linearGradient id="accent" x1="0" y1="0" x2="1" y2="1"><stop offset="0" stop-color="#7CA6F0"/><stop offset="1" stop-color="#5487DD"/></linearGradient>
</defs>
<rect width="1200" height="280" rx="24" fill="url(#bg)"/>
<circle cx="1128" cy="44" r="180" fill="#D6E5FF" opacity=".7"/>
<circle cx="1174" cy="258" r="124" fill="#CCE0FF" opacity=".55"/>
<rect x="62" y="54" width="42" height="6" rx="3" fill="#7CA6F0"/>
<text x="62" y="126" font-family="Segoe UI,Arial,sans-serif" font-size="59" font-weight="700" letter-spacing="-2" fill="#163A69">LessonBell</text>
<text x="64" y="168" font-family="Segoe UI,Arial,sans-serif" font-size="24" fill="#48658A">A simpler day at your education centre.</text>
<text x="64" y="225" font-family="Segoe UI,Arial,sans-serif" font-size="15" font-weight="600" letter-spacing="2" fill="#6281AB">OFFICIAL APPS &amp; DOWNLOADS</text>
<g transform="translate(872 64)">
<rect x="0" y="20" width="232" height="158" rx="18" fill="#FFFFFF" opacity=".92"/>
<rect x="18" y="42" width="84" height="8" rx="4" fill="#CFDCF1"/>
<rect x="18" y="66" width="194" height="35" rx="10" fill="#EEF4FF"/>
<circle cx="37" cy="83" r="7" fill="#76A2ED"/>
<rect x="53" y="79" width="88" height="7" rx="3.5" fill="#BACDEC"/>
<rect x="18" y="113" width="194" height="35" rx="10" fill="#EEF4FF"/>
<circle cx="37" cy="130" r="7" fill="#76A2ED"/>
<rect x="53" y="126" width="118" height="7" rx="3.5" fill="#BACDEC"/>
<rect x="170" y="-10" width="78" height="78" rx="20" fill="url(#accent)"/>
<path d="M190 29l13 13 26-28" fill="none" stroke="#FFFFFF" stroke-width="6" stroke-linecap="round" stroke-linejoin="round"/>
<circle cx="-13" cy="161" r="15" fill="#FFD35C"/>
</g>
</svg>
